<?xml version="1.0" encoding="utf-8"?>
<!-- Generator: Adobe Illustrator 17.0.0, SVG Export Plug-In . SVG Version: 6.00 Build 0)  -->
<!DOCTYPE svg PUBLIC "-//W3C//DTD SVG 1.1//EN" "http://www.w3.org/Graphics/SVG/1.1/DTD/svg11.dtd">
<svg version="1.1" id="Layer_1" xmlns="http://www.w3.org/2000/svg" xmlns:xlink="http://www.w3.org/1999/xlink" x="0px" y="0px"
	 width="560px" height="560px" viewBox="0 0 560 560" enable-background="new 0 0 560 560" xml:space="preserve">
<path fill="#C9C9C9" d="M481.5,525c-10.121-10.325-20.169-20.722-30.377-30.96c-28.467-28.549-57.004-57.029-85.507-85.543
	c-8.796-8.799-9.427-16.913-2.366-26.797c-13.715-13.583-27.39-27.127-41.494-41.096c-1.928,1.359-4.854,3.475-7.833,5.514
	C217.749,411.943,87.957,367.237,52.97,256.05c-3.126-9.934-4.371-20.46-6.497-30.71c-0.301-1.451-0.647-2.894-0.972-4.34
	c0-10,0-20,0-30c0.419-2.583,0.889-5.159,1.249-7.75c10.027-72.162,62.436-128.839,133.773-144.555
	c6.61-1.456,13.317-2.474,19.979-3.695c10.333,0,20.667,0,31,0c7.021,1.257,14.101,2.255,21.055,3.811
	c71.402,15.972,123.504,72.352,133.104,144.672c6.112,46.041-5.27,87.789-32.781,125.168c-1.377,1.871-2.799,3.71-3.961,5.248
	c13.646,13.664,27.146,27.18,40.871,40.922c1.8-1.028,3.95-2.679,6.379-3.568c8.186-2.996,14.869-0.217,20.761,5.704
	c18.213,18.3,36.509,36.516,54.766,54.771c20.142,20.14,40.273,40.29,60.426,60.418c1.039,1.038,2.249,1.906,3.379,2.852
	c0,2,0,4,0,6c-4.197,4.002-8.49,7.908-12.572,12.023C512.402,503.633,501.97,514.335,491.5,525C488.167,525,484.833,525,481.5,525z
	 M216.616,70.924c-74.577-0.146-134.928,59.752-135.21,134.196c-0.284,74.902,60.088,135.681,134.845,135.754
	c74.392,0.073,134.99-60.533,135.112-135.13C351.484,131.551,291.036,71.07,216.616,70.924z"/>
</svg>
