<?xml version="1.0" encoding="utf-8"?>
<!-- Generator: Adobe Illustrator 17.0.0, SVG Export Plug-In . SVG Version: 6.00 Build 0)  -->
<!DOCTYPE svg PUBLIC "-//W3C//DTD SVG 1.1//EN" "http://www.w3.org/Graphics/SVG/1.1/DTD/svg11.dtd">
<svg version="1.1" id="Layer_1" xmlns="http://www.w3.org/2000/svg" xmlns:xlink="http://www.w3.org/1999/xlink" x="0px" y="0px"
	 width="530px" height="144px" viewBox="0 0 530 144" enable-background="new 0 0 530 144" xml:space="preserve">
<path fill="#262626" d="M166.24,23.338c5.268,4.326,7.918,11.522,12.551,22.832l0.178,54.038l-26.097-1.179l-0.161-48.81
	c-0.014-4.221-0.584-7.458-1.712-9.713c-2.062-4.117-5.966-6.166-11.714-6.147c-7.065,0.023-11.903,3.058-14.513,9.104
	c-1.354,3.195-2.023,7.272-2.007,12.228l0.143,43.437L98.152,99.21l3.512-80.112l20.319-0.067l0.039,11.706
	c2.673-4.132,5.206-7.109,7.595-8.934c4.289-3.253,9.734-4.891,16.332-4.912C154.208,16.863,160.971,19.012,166.24,23.338z"/>
<path fill="#262626" d="M235.133,48.319c-0.403-2.992-1.42-5.689-3.051-8.089c-2.375-3.231-6.044-4.839-11.013-4.822
	c-7.086,0.023-11.921,3.549-14.505,10.575c-1.366,3.727,32.419-4.902-2.017,14.84c-5.098,2.923,9.212,2.976,2.112,14.167
	c-1.7,2.68-13.222,10.057,14.202,9.967c4.921-0.016,8.41-1.354,10.467-4.012c2.057-2.657,3.3-6.095,3.731-10.319l21.423-0.071
	c-0.471,6.383-2.761,12.428-6.868,18.134c-6.554,9.2-16.29,13.823-29.211,13.865c-12.921,0.043-22.441-3.755-28.556-11.392
	c-6.118-7.636-9.197-17.554-9.237-29.752c-0.045-13.765,3.284-24.489,9.989-32.167c6.705-7.679,15.979-11.537,27.821-11.576
	c10.07-0.033,18.32,2.198,24.746,6.692c6.426,4.495,10.247,12.458,11.463,23.889L235.133,48.319z"/>
<path fill="#262626" d="M328.621,89.986c-6.744,8.385-17.013,12.599-30.804,12.645c-13.793,0.045-24.09-4.101-30.889-12.442
	c-6.802-8.338-10.22-18.391-10.259-30.161c-0.038-11.572,3.314-21.613,10.06-30.119c6.744-8.505,17.013-12.782,30.806-12.828
	c13.791-0.045,24.088,4.164,30.887,12.624c6.802,8.462,10.223,18.48,10.261,30.052C338.722,71.528,335.368,81.603,328.621,89.986z
	 M311.797,78.445c3.274-4.373,4.899-10.577,4.872-18.615c-0.027-8.038-1.692-14.22-4.995-18.547
	c-3.303-4.325-8.021-6.48-14.156-6.46c-6.137,0.02-10.851,2.206-14.15,6.553c-3.299,4.348-4.936,10.541-4.91,18.579
	c0.027,8.038,1.705,14.231,5.032,18.582c3.327,4.351,8.056,6.517,14.193,6.497C303.819,85.015,308.523,82.818,311.797,78.445z"/>
<path fill="#262626" d="M451.292,25.616c5.607,2.489,10.242,6.432,13.907,11.826c3.302,4.757,5.452,10.281,6.449,16.569
	c0.575,3.686,0.823,8.993,0.742,15.924l-58.445,0.193c0.353,8.049,3.168,13.683,8.446,16.905c3.213,2.003,7.071,2.996,11.58,2.981
	c4.781-0.016,8.66-1.254,11.639-3.72c1.624-1.33,3.058-3.176,4.3-5.536l21.42-0.071c-0.548,4.763-3.126,9.606-7.73,14.531
	c-7.164,7.826-17.214,11.763-30.152,11.805c-10.68,0.035-20.114-3.227-28.299-9.782c-8.185-6.555-12.301-17.251-12.35-32.086
	c-0.046-13.901,3.603-24.574,10.948-32.015c7.345-7.442,16.899-11.183,28.659-11.222C439.391,21.895,445.685,23.128,451.292,25.616z
	 M419.963,43.845c-2.957,3.067-4.804,7.213-5.55,12.441l36.15-0.119c-0.401-5.569-2.278-9.79-5.633-12.662
	c-3.355-2.873-7.508-4.303-12.459-4.286C427.085,39.236,422.917,40.779,419.963,43.845z"/>
<g>
	<path fill="#262626" d="M390.734,16.214c0.285,0.025,0.92,0.062,1.905,0.11l0.075,22.697c-1.4-0.151-2.644-0.25-3.732-0.299
		c-1.088-0.048-1.969-0.071-2.643-0.069c-8.913,0.029-14.889,2.951-17.927,8.765c-1.699,3.27-2.538,8.3-2.515,15.088l0.134,40.498
		l-22.309,0.074l-0.279-84.726l21.143-0.07l0.049,14.769c3.402-5.66,6.368-9.53,8.901-11.611c4.134-3.486,9.518-5.239,16.151-5.261
		C390.099,16.177,390.448,16.189,390.734,16.214z"/>
</g>
<g>
	<path fill="#262626" d="M403.596,3.302l57.596-0.19l0.04,12.007l-57.596,0.19L403.596,3.302z"/>
</g>
<g>
	<path fill="#262626" d="M523,24.063c0.041,12.556-10.099,22.445-23.338,22.489c-13.101,0.043-23.587-9.777-23.629-22.334
		C475.992,11.933,486.414,2.043,499.515,2C512.754,1.956,522.959,11.778,523,24.063z M481.887,24.199
		c0.033,9.856,7.584,17.662,17.897,17.628c10.035-0.033,17.397-7.888,17.365-17.609c-0.033-9.855-7.447-17.796-17.62-17.762
		C489.354,6.489,481.854,14.479,481.887,24.199z M496.001,35.763l-5.295,0.017l-0.073-22.141c2.089-0.412,5.014-0.692,8.777-0.704
		c4.319-0.014,6.275,0.654,7.95,1.594c1.257,0.941,2.238,2.693,2.245,4.853c0.008,2.43-1.936,4.327-4.721,5.146l0.001,0.27
		c2.234,0.803,3.493,2.419,4.199,5.387c0.708,3.372,1.131,4.721,1.69,5.529l-5.713,0.019c-0.7-0.808-1.125-2.832-1.83-5.394
		c-0.427-2.428-1.824-3.504-4.75-3.495l-2.509,0.008L496.001,35.763z M496.1,23.207l2.509-0.008c2.926-0.01,5.292-0.962,5.284-3.258
		c-0.007-2.024-1.543-3.369-4.89-3.358c-1.394,0.005-2.369,0.143-2.925,0.279L496.1,23.207z"/>
</g>
<path fill="#262626" d="M69.8,19.21c6.288,2.566,11.486,6.632,15.595,12.196c3.702,4.907,6.112,10.604,7.228,17.091
	c0.644,3.802,0.92,9.277,0.827,16.428l-65.555,0.216c0.393,8.304,3.549,14.115,9.468,17.437c3.604,2.065,7.93,3.088,12.988,3.072
	c5.362-0.018,9.714-1.296,13.056-3.841c1.822-1.372,3.431-3.278,4.825-5.712l24.026-0.079c-0.616,4.914-3.509,9.911-8.674,14.993
	c-8.038,8.076-19.311,12.14-33.824,12.188c-11.98,0.04-22.56-3.323-31.739-10.083C8.845,86.354,4.23,75.321,4.18,60.017
	C4.132,45.676,8.228,34.665,16.469,26.986c8.241-7.68,18.958-11.542,32.149-11.586C56.453,15.374,63.512,16.645,69.8,19.21z
	 M34.654,38.025c-3.318,3.165-5.39,7.442-6.229,12.836l40.548-0.134c-0.448-5.745-2.552-10.099-6.314-13.061
	c-3.762-2.963-8.42-4.436-13.973-4.418C42.644,33.268,37.969,34.861,34.654,38.025z"/>
<g>
	<path fill="#262626" d="M114.742,112.544H93.865v6.96h18.588c2.668,0,4.48,0.416,5.434,1.248c0.953,0.833,1.43,2.368,1.43,4.608
		v2.783c0,2.272-0.478,3.816-1.43,4.633c-0.954,0.815-2.765,1.224-5.434,1.224H95.238c-2.669,0-4.49-0.408-5.462-1.224
		c-0.972-0.816-1.458-2.36-1.458-4.633v-0.672l4.576-0.912v3.984h21.963v-7.44H96.325c-2.631,0-4.433-0.407-5.405-1.224
		c-0.972-0.815-1.458-2.359-1.458-4.632v-2.16c0-2.304,0.486-3.855,1.458-4.656c0.972-0.799,2.774-1.199,5.405-1.199h15.729
		c2.517,0,4.299,0.378,5.348,1.135c1.048,0.758,1.573,2.171,1.573,4.241v0.527l-4.232,1.008V112.544z"/>
	<path fill="#262626" d="M134.245,134v-24.768h28.426v3.312h-23.507v6.912h14.356v3.264h-14.356v7.872H162.9V134H134.245z"/>
	<path fill="#262626" d="M199.618,112.544h-20.476v18h20.476v-6.192l4.919,0.864v2.928c0,2.305-0.477,3.857-1.43,4.656
		c-0.954,0.801-2.765,1.2-5.434,1.2h-16.529c-2.669,0-4.49-0.408-5.462-1.224c-0.972-0.816-1.458-2.36-1.458-4.633v-13.056
		c0-2.271,0.486-3.815,1.458-4.632s2.793-1.224,5.462-1.224h16.529c2.668,0,4.48,0.395,5.434,1.183
		c0.953,0.789,1.43,2.33,1.43,4.625v2.352l-4.919,0.769V112.544z"/>
	<path fill="#262626" d="M222.439,109.232v21.312h21.505v-21.312h4.918v18.911c0,2.272-0.478,3.816-1.433,4.633
		c-0.955,0.815-2.769,1.224-5.443,1.224h-17.534c-2.674,0-4.498-0.408-5.472-1.224c-0.974-0.816-1.461-2.36-1.461-4.633v-18.911
		H222.439z"/>
	<path fill="#262626" d="M264.191,134v-24.768h23.748c2.17,0,3.748,0.376,4.738,1.128s1.484,1.976,1.484,3.672v5.52
		c0,1.696-0.494,2.921-1.484,3.672c-0.99,0.753-2.568,1.128-4.738,1.128h-4.338L297.099,134h-7.32l-11.997-9.648h-8.671V134H264.191
		z M286.04,112.448h-16.93v8.688h16.93c1.182,0,2.01-0.175,2.488-0.527c0.475-0.353,0.715-1.024,0.715-2.017v-3.6
		c0-0.96-0.24-1.624-0.715-1.992C288.05,112.633,287.222,112.448,286.04,112.448z"/>
	<path fill="#262626" d="M307.774,134v-24.768h28.426v3.312h-23.507v6.912h14.355v3.264h-14.355v7.872h23.736V134H307.774z"/>
	<path fill="#262626" d="M364.396,109.232c5.186,0,8.96,0.64,11.325,1.92c1.906,1.024,3.402,2.447,4.489,4.271s1.63,3.84,1.63,6.048
		c0,4.833-2.04,8.369-6.119,10.608c-2.326,1.28-6.102,1.92-11.325,1.92h-16.243v-24.768H364.396z M363.709,112.544h-10.638v18
		h10.638c4.576,0,7.854-0.642,9.838-1.925c2.174-1.38,3.261-3.77,3.261-7.171c0-3.273-1.087-5.599-3.261-6.979
		C371.526,113.185,368.247,112.544,363.709,112.544z"/>
</g>
<g>
</g>
<g>
</g>
<g>
</g>
<g>
</g>
<g>
</g>
<g>
</g>
<g>
</g>
<g>
</g>
<g>
</g>
<g>
</g>
<g>
</g>
<g>
</g>
<g>
</g>
<g>
</g>
<g>
</g>
</svg>
