<?xml version="1.0" encoding="utf-8"?>
<!-- Generator: Adobe Illustrator 17.0.0, SVG Export Plug-In . SVG Version: 6.00 Build 0)  -->
<!DOCTYPE svg PUBLIC "-//W3C//DTD SVG 1.1//EN" "http://www.w3.org/Graphics/SVG/1.1/DTD/svg11.dtd">
<svg version="1.1" id="Layer_1" xmlns="http://www.w3.org/2000/svg" xmlns:xlink="http://www.w3.org/1999/xlink" x="0px" y="0px"
	 width="530px" height="144px" viewBox="0 0 530 144" enable-background="new 0 0 530 144" xml:space="preserve">
<g>
	<path fill="#FFFFFF" d="M167.151,56.488c5.268,4.326,7.918,11.522,12.551,22.832l0.178,54.038l-26.097-1.179l-0.161-48.81
		c-0.014-4.221-0.584-7.458-1.712-9.713c-2.062-4.117-5.966-6.166-11.714-6.147c-7.065,0.023-11.903,3.058-14.513,9.104
		c-1.354,3.195-2.023,7.272-2.007,12.228l0.143,43.437l-24.757,0.082l3.512-80.112l20.319-0.067l0.039,11.706
		c2.673-4.132,5.206-7.109,7.595-8.934c4.289-3.253,9.734-4.891,16.332-4.912C155.118,50.013,161.881,52.162,167.151,56.488z"/>
	<path fill="#FFFFFF" d="M236.044,81.469c-0.403-2.992-1.42-5.689-3.051-8.089c-2.375-3.231-6.044-4.839-11.013-4.822
		c-7.086,0.023-11.921,3.549-14.505,10.575c-1.366,3.727,32.419-4.902-2.017,14.84c-5.098,2.923,9.212,2.976,2.112,14.167
		c-1.7,2.68-13.222,10.057,14.202,9.967c4.921-0.016,8.41-1.354,10.467-4.012c2.057-2.657,3.3-6.095,3.731-10.319l21.423-0.071
		c-0.471,6.383-2.761,12.428-6.868,18.134c-6.554,9.2-16.29,13.823-29.211,13.865c-12.921,0.043-22.441-3.755-28.556-11.392
		c-6.118-7.636-9.197-17.554-9.237-29.752c-0.045-13.765,3.284-24.489,9.989-32.167c6.705-7.679,15.979-11.537,27.821-11.576
		c10.07-0.033,18.32,2.198,24.746,6.692c6.426,4.495,10.247,12.458,11.463,23.889L236.044,81.469z"/>
	<path fill="#FFFFFF" d="M329.531,123.136c-6.744,8.385-17.013,12.599-30.804,12.645c-13.793,0.045-24.09-4.101-30.889-12.442
		c-6.802-8.338-10.22-18.391-10.259-30.161c-0.038-11.572,3.314-21.613,10.06-30.119c6.744-8.505,17.013-12.782,30.806-12.828
		c13.791-0.045,24.088,4.164,30.887,12.624c6.802,8.462,10.223,18.48,10.261,30.052
		C339.632,104.678,336.278,114.753,329.531,123.136z M312.708,111.595c3.274-4.373,4.899-10.577,4.872-18.615
		c-0.027-8.038-1.692-14.22-4.995-18.547c-3.303-4.325-8.021-6.48-14.156-6.46c-6.137,0.02-10.851,2.206-14.15,6.553
		c-3.299,4.348-4.936,10.541-4.91,18.579c0.027,8.038,1.705,14.231,5.032,18.582c3.327,4.351,8.056,6.517,14.193,6.497
		C304.73,118.165,309.434,115.968,312.708,111.595z"/>
	<path fill="#FFFFFF" d="M452.202,58.766c5.607,2.489,10.242,6.432,13.907,11.826c3.302,4.757,5.452,10.281,6.449,16.569
		c0.575,3.686,0.823,8.993,0.742,15.924l-58.445,0.193c0.353,8.049,3.168,13.683,8.446,16.905c3.213,2.003,7.071,2.996,11.58,2.981
		c4.781-0.016,8.66-1.254,11.639-3.72c1.624-1.33,3.058-3.176,4.3-5.536l21.42-0.071c-0.548,4.763-3.126,9.606-7.73,14.531
		c-7.164,7.826-17.214,11.763-30.152,11.805c-10.68,0.035-20.114-3.227-28.299-9.782c-8.185-6.555-12.301-17.251-12.35-32.086
		c-0.046-13.901,3.603-24.574,10.948-32.015c7.345-7.442,16.899-11.183,28.659-11.222C440.301,55.045,446.596,56.278,452.202,58.766
		z M420.873,76.995c-2.957,3.067-4.804,7.213-5.55,12.441l36.15-0.119c-0.401-5.569-2.278-9.79-5.633-12.662
		c-3.355-2.873-7.508-4.303-12.459-4.286C427.996,72.386,423.828,73.929,420.873,76.995z"/>
	<g>
		<path fill="#FFFFFF" d="M391.644,49.364c0.285,0.025,0.92,0.062,1.905,0.11l0.075,22.697c-1.4-0.151-2.644-0.25-3.732-0.299
			c-1.088-0.048-1.969-0.071-2.643-0.069c-8.913,0.029-14.889,2.951-17.927,8.765c-1.699,3.27-2.538,8.3-2.515,15.088l0.134,40.498
			l-22.309,0.074l-0.279-84.726l21.143-0.07l0.049,14.769c3.402-5.66,6.368-9.53,8.901-11.611c4.134-3.486,9.518-5.239,16.151-5.261
			C391.009,49.327,391.359,49.339,391.644,49.364z"/>
	</g>
	<g>
		<path fill="#FFFFFF" d="M404.507,36.452l57.596-0.19l0.04,12.007l-57.596,0.19L404.507,36.452z"/>
	</g>
	<g>
		<path fill="#FFFFFF" d="M524.91,24.684c0.041,12.556-10.099,22.445-23.338,22.489c-13.101,0.043-23.587-9.777-23.629-22.334
			c-0.04-12.286,10.381-22.175,23.482-22.218C514.664,2.577,524.87,12.398,524.91,24.684z M483.797,24.819
			c0.033,9.856,7.584,17.662,17.897,17.628c10.035-0.033,17.397-7.888,17.365-17.609c-0.032-9.855-7.447-17.796-17.62-17.762
			C491.264,7.109,483.765,15.099,483.797,24.819z M497.911,36.383l-5.295,0.017l-0.073-22.141c2.089-0.412,5.014-0.692,8.777-0.704
			c4.319-0.014,6.275,0.654,7.95,1.594c1.257,0.941,2.238,2.693,2.245,4.853c0.008,2.43-1.936,4.327-4.721,5.146l0.001,0.27
			c2.234,0.803,3.493,2.419,4.199,5.387c0.708,3.372,1.131,4.721,1.69,5.529l-5.713,0.019c-0.7-0.808-1.125-2.832-1.83-5.394
			c-0.427-2.428-1.824-3.504-4.75-3.495l-2.509,0.008L497.911,36.383z M498.01,23.828l2.509-0.008
			c2.926-0.01,5.292-0.962,5.284-3.258c-0.007-2.024-1.543-3.369-4.89-3.358c-1.394,0.005-2.369,0.143-2.925,0.279L498.01,23.828z"
			/>
	</g>
	<path fill="#FFFFFF" d="M70.71,52.36c6.288,2.566,11.486,6.632,15.595,12.196c3.702,4.907,6.112,10.604,7.228,17.091
		c0.644,3.802,0.92,9.277,0.827,16.428l-65.555,0.216c0.393,8.304,3.549,14.115,9.468,17.437c3.604,2.065,7.93,3.088,12.988,3.072
		c5.362-0.018,9.714-1.296,13.056-3.841c1.822-1.372,3.431-3.278,4.825-5.712l24.026-0.079c-0.616,4.914-3.509,9.911-8.674,14.993
		c-8.038,8.076-19.311,12.14-33.824,12.188c-11.98,0.04-22.56-3.323-31.739-10.083c-9.178-6.76-13.793-17.793-13.843-33.098
		C5.043,78.826,9.138,67.815,17.38,60.136c8.241-7.68,18.958-11.542,32.149-11.586C57.363,48.524,64.423,49.795,70.71,52.36z
		 M35.564,71.175c-3.318,3.165-5.39,7.442-6.229,12.836l40.548-0.134c-0.448-5.745-2.552-10.099-6.314-13.061
		c-3.762-2.963-8.42-4.436-13.973-4.418C43.555,66.418,38.879,68.011,35.564,71.175z"/>
</g>
</svg>
