<?xml version="1.0" encoding="utf-8"?>
<!-- Generator: Adobe Illustrator 17.0.0, SVG Export Plug-In . SVG Version: 6.00 Build 0)  -->
<!DOCTYPE svg PUBLIC "-//W3C//DTD SVG 1.1//EN" "http://www.w3.org/Graphics/SVG/1.1/DTD/svg11.dtd">
<svg version="1.1" id="Layer_1" xmlns="http://www.w3.org/2000/svg" xmlns:xlink="http://www.w3.org/1999/xlink" x="0px" y="0px"
	 width="600px" height="600px" viewBox="0 0 600 600" enable-background="new 0 0 600 600" xml:space="preserve">
<text transform="matrix(0.8734 0 0 1 200.987 567.0529)" font-family="'DevanagariSangamMN-Bold'" font-size="115.6245">EDIT</text>
<g>
	<g>
		<path fill="none" stroke="#000000" stroke-width="15" stroke-miterlimit="10" d="M193.439,191.626
			c-5.211,13.067-5.637,25.661-5.481,38.369c0.156,12.662-0.055,25.328,0.099,37.99c0.037,3.018-0.661,4.56-3.704,5.885
			c-21.076,9.178-32.208,31.908-27.179,54.853c4.614,21.052,24.36,36.723,46.435,36.851c22.574,0.131,42.703-15.678,47.234-37.096
			c4.81-22.738-6.331-45.256-27.03-54.629c-1.203-0.545-2.416-1.067-2.917-1.288c0-20.739-0.235-41.04,0.192-61.327
			c0.088-4.204,2.632-8.357,4.347-13.426c22.496,17.448,46.851,26.526,74.228,26.571c27.462,0.045,51.931-8.823,73.99-25.975
			c8.689,12.032,5.662,25.577,6.331,37.822c-8.637,2.163-17.287,3.057-24.812,6.449c-23.987,10.814-37.549,29.503-39.094,56.196
			c-0.26,4.485-0.162,8.997-0.083,13.494c0.11,6.29-0.365,11.839-4.59,17.559c-7.018,9.501-3.62,23.33,5.993,30.697
			c9.589,7.35,22.939,6.505,31.474-1.991c8.594-8.556,9.699-22.138,2.084-31.35c-2.339-2.83-3.148-5.536-3.032-8.997
			c0.178-5.326,0.013-10.663,0.054-15.995c0.142-18.327,14.243-32.681,32.049-32.657c17.757,0.024,31.774,14.413,31.929,32.795
			c0.031,3.666-0.084,7.334,0.026,10.997c0.175,5.828-0.459,10.872-4.385,16.11c-7.09,9.458-4.024,23.349,5.426,30.834
			c9.624,7.623,23.242,6.864,31.876-1.777c8.575-8.581,9.649-22.16,2.007-31.354c-2.36-2.839-2.974-5.573-3.011-9.008
			c-0.095-8.815,0.276-17.734-0.941-26.416c-2.583-18.429-12.124-32.889-27.6-43.25c-2.506-1.678-3.373-3.36-3.471-6.379
			c-0.419-12.958-1.046-25.915-1.979-38.845c-0.266-3.685-1.823-7.276-2.932-11.456c11.962,2.58,21.767,8.051,30.52,15.741
			c15.801,13.881,23.815,32.129,29.417,51.777c7.282,25.544,9.685,51.671,8.884,78.107c-0.985,32.543-22.599,55.637-55.064,59.198
			c-4.295,0.471-8.628,0.832-12.944,0.835c-71.983,0.051-143.966,0.04-215.949,0.033c-16.349-0.002-31.762-3.166-45.068-13.422
			c-14.583-11.242-21.685-26.562-22.449-44.464c-1.434-33.567,2.185-66.569,14.821-98.029c9.145-22.769,24.056-40.132,48.051-48.272
			C188.885,192.811,190.633,192.41,193.439,191.626z"/>
		<path fill="none" stroke="#000000" stroke-width="15" stroke-miterlimit="10" d="M203.994,109.234
			c-0.785-51.892,43.97-96.738,97.594-95.758c52.024,0.951,94.501,43.623,94.374,96.478c-0.128,53.415-42.956,95.819-96.598,95.643
			C246.254,205.423,203.893,162.621,203.994,109.234z"/>
	</g>
	<path fill="none" stroke="#000000" stroke-width="15" stroke-miterlimit="10" d="M204.223,301.627
		c8.6,0.107,15.819,7.472,15.748,16.065c-0.072,8.577-7.417,15.876-15.98,15.879c-8.811,0.004-16.156-7.513-15.985-16.361
		C188.171,308.629,195.569,301.52,204.223,301.627z"/>
</g>
</svg>
