<?xml version="1.0" encoding="utf-8"?>
<!-- Generator: Adobe Illustrator 17.0.0, SVG Export Plug-In . SVG Version: 6.00 Build 0)  -->
<!DOCTYPE svg PUBLIC "-//W3C//DTD SVG 1.1//EN" "http://www.w3.org/Graphics/SVG/1.1/DTD/svg11.dtd">
<svg version="1.1" id="Layer_1" xmlns="http://www.w3.org/2000/svg" xmlns:xlink="http://www.w3.org/1999/xlink" x="0px" y="0px"
	 width="600px" height="600px" viewBox="0 0 600 600" enable-background="new 0 0 600 600" xml:space="preserve">
<path fill="none" stroke="#C8C8C8" stroke-width="15" stroke-miterlimit="10" d="M527.076,297.66
	c-0.697,2.88-1.316,5.783-2.104,8.638c-7.106,25.76-31.925,38.169-56.506,27.672c-6.92-2.955-13.222-7.6-19.36-12.083
	c-9.32-6.807-18.928-12.337-30.95-12.215c-15.126,0.153-24.633,8.812-26.139,23.907c-1.399,14.018,2.177,27.449,4.521,41.048
	c1.376,7.982,2.225,16.056,3.306,24.051c-17.308,2.062-33.591,4.371-49.949,5.837c-14.074,1.261-28.232,1.614-42.359,2.229
	c-2.119,0.092-4.299-0.443-6.402-0.908c-21.358-4.725-29.732-20.397-20.96-40.544c2.939-6.751,7.502-12.914,11.975-18.854
	c8.397-11.151,13.828-23.112,12.453-37.411c-1.688-17.555-11.583-28.738-27.822-34.242c-15.449-5.236-30.938-4.367-45.736,2.598
	c-19.809,9.323-28.258,27.879-22.254,50.493c2.219,8.359,6.76,16.142,10.597,24.014c1.809,3.711,4.63,6.914,6.694,10.518
	c9.895,17.273,2.824,36.374-16.049,43.265c-10.937,3.994-22.36,3.619-33.614,2.439c-20.356-2.133-40.639-4.955-60.962-7.41
	c-2.792-0.337-4.456-0.893-4.452-4.408c0.101-83.479,0.083-166.959,0.097-250.438c0-0.488,0.134-0.977,0.273-1.93
	c11.638,1.74,23.189,3.738,34.812,5.142c18.497,2.235,36.987,5.087,55.73,2.679c11.647-1.497,19.92-7.815,25.778-17.661
	c4.318-7.258,4.936-14.903,1.067-22.416c-2.961-5.748-6.514-11.213-10.078-16.624c-7.03-10.672-11.311-22.223-11.556-35.07
	c-0.351-18.471,8.353-32.005,25.341-39.275c13.824-5.916,28.122-6.772,42.52-2.586c24.542,7.136,36.479,31.681,26.71,55.533
	c-2.667,6.512-7.185,12.279-10.956,18.324c-3.249,5.208-7.278,10.027-9.862,15.534c-10.458,22.288,0.664,41.877,25.254,42.926
	c15.214,0.649,30.567-1.116,45.813-2.344c13.933-1.122,27.806-2.995,41.711-4.486c1.607-0.172,3.248-0.023,5.087-0.023
	c-2.08,14.749-4.768,29.138-5.978,43.651c-1.309,15.704-1.861,31.534-1.553,47.286c0.212,10.838,6.759,18.883,15.728,24.76
	c8.019,5.255,16.467,6.281,25.035,1.613c5.538-3.017,10.827-6.509,16.123-9.95c9.671-6.285,20.139-10.365,31.676-11.12
	c22.056-1.445,37.646,9.471,44.37,30.851c1.136,3.613,1.963,7.324,2.933,10.989C527.076,286.994,527.076,292.327,527.076,297.66z"/>
<text transform="matrix(1 0 0 1 97.0042 579.701)" fill="#C8C8C8" stroke="#C8C8C8" stroke-miterlimit="10" font-family="'DevanagariSangamMN-Bold'" font-size="106.5418">HISTORY</text>
</svg>
