<?xml version="1.0" encoding="utf-8"?>
<!-- Generator: Adobe Illustrator 17.0.0, SVG Export Plug-In . SVG Version: 6.00 Build 0)  -->
<!DOCTYPE svg PUBLIC "-//W3C//DTD SVG 1.1//EN" "http://www.w3.org/Graphics/SVG/1.1/DTD/svg11.dtd">
<svg version="1.1" id="Layer_1" xmlns="http://www.w3.org/2000/svg" xmlns:xlink="http://www.w3.org/1999/xlink" x="0px" y="0px"
	 width="600px" height="600px" viewBox="-50 -50 600 600" enable-background="new -50 -50 600 600" xml:space="preserve">
<text transform="matrix(0.8734 0 0 1 127.1609 531.8043)" fill="#C8C8C8" stroke="#C8C8C8" stroke-miterlimit="10" font-family="'MalayalamSangamMN-Bold'" font-size="119.3152">VIEW</text>
<g>
	<path fill="none" stroke="#C8C8C8" stroke-width="15" stroke-miterlimit="10" d="M417.648,298.477
		c-0.776,3.367-1.474,6.754-2.339,10.097c-6.128,23.69-26.382,41.232-50.849,43.846c-6.113,0.653-12.288,1.007-18.435,1.013
		c-70.653,0.069-141.307,0.039-211.96,0.048c-11.768,0.002-23.314-1.339-34.048-6.487c-21.138-10.138-32.695-27.408-33.891-50.427
		c-1.769-34.037,1.782-67.632,14.981-99.44c3.779-9.107,9.22-17.759,15.139-25.695c12.421-16.656,30.018-24.038,50.358-25.92
		c5.985-0.554,10.54,1.972,15.321,4.791c11.872,7,23.356,14.959,35.906,20.453c36.506,15.983,71.79,11.227,105.523-8.813
		c5.149-3.059,10.427-6.057,15.048-9.818c8.756-7.126,18.287-7.432,28.709-5.186c20.022,4.317,35.049,15.335,45.962,32.496
		c12.62,19.845,18.206,41.985,21.556,64.859c1.272,8.688,2.028,17.451,3.019,26.18C417.648,279.811,417.648,289.144,417.648,298.477
		z"/>
	<path fill="none" stroke="#C8C8C8" stroke-width="15" stroke-miterlimit="10" d="M241.66,161.477
		c-53.511,0.003-96.067-42.66-96.008-96.25c0.059-53.496,42.632-95.732,96.478-95.714c53.124,0.018,95.597,42.788,95.515,96.183
		C337.562,118.943,294.941,161.473,241.66,161.477z"/>
</g>
</svg>
